<?xml version="1.0" encoding="UTF-8"?>
<svg id="Ebene_1" data-name="Ebene 1" xmlns="http://www.w3.org/2000/svg" viewBox="0 0 11.000000000000909 17.329479768788588">
  <defs>
    <style>
      .cls-1 {
        fill: #fff;
        stroke: #fff;
        stroke-miterlimit: 10;
        stroke-width: .15px;
      }

      .cls-2 {
        fill: #702283;
        stroke: #1d1d1b;
        stroke-linejoin: round;
      }
    </style>
  </defs>
  <path class="cls-2" d="M.967378028929488,7.613589565156872c-.29988001244692-.641997916809487-.467378028929488-1.358233112034213-.467378028929488-2.113589565155053C.5,2.738576251000268,2.738576251000268.5,5.5.5c2.761423749000642,0,5.000000000000909,2.238576251000268,5.000000000000909,5.000000000001819,0,.755358466763937-.167498909521782,1.471595467051884-.467380427208809,2.113594699503665l-4.5326195727921,9.215885069283104L.967378028929488,7.613589565156872Z"/>
  <path class="cls-1" d="M8.018625396412972,3.483494616313692c-.010076373997435.002290084999913-.031603172991709.007328271998631-.048091784988173.010992407997037-.038015410989829.009160339997834-.098015637973731.037099376990227-.13648906596427.064122379983019-.01969473099507.013740509995841-.291298811923298.281680454925663-.756644083802712.746567709806186-.399390823895374.398932806894663-.728247029810518.725498927809895-.730995131809323.725498927809895-.002290084999004,0-.730995131809323-.191909122950165-1.618632077577786-.425955809889274-.887636945768463-.234504703938001-1.616341992578782-.425955809889274-1.619090094577587-.425955809889274-.005496203998518,0-.536337906860354.529925668863143-.533589804861549.532673770861948.001374051000312.001374051000312.600002269843571.316031729917086,1.330539384653093.699849975817415s1.329623350653492.699849975817415,1.331455418653604.702140060817328c.002290084999004.003206118999515-.222596261943181.231298584938486-.538627991860267.54687229785668l-.541834110857963.542292127858673-.418627537891552-.052671954985271-.418627537890643-.05267195498709-.205191615946205.204733598948224c-.113130198970794.112214164968464-.207023683946318.207481700945209-.209313768946231.211603853944325-.003664135998406.005954220998319.072366685981251.047633767986554.463971220879102.25374141793327.257405553933495.135115014963958.471299492877733.249619264934154.47542164587685.25374141793327.004122152998207.004122152999116.082443059977777.14931354196051.174046459954297.323360001915717.091603399975611.173588442954497.201527479947799.382902211900728.244581077936346.464429237879813.043053597988546.081985042977976.080610991978574.14931354196051.083359093978288.150229575960111.002748101998804.000916033999601.098931671973332-.09160339997652.213893938944238-.205649632946006l.208855751945521-.207481700945209-.004580169998917-.033893257992531c-.002290084999004-.018778696994559-.024274900993987-.20152747994689-.048091784987264-.405345044893693-.023816883994186-.204275581947513-.044427648988858-.376489973901698-.045343682988459-.382902211900728-.001832067999203-.010076373997435.06549643098333-.079236940979172.536795923860154-.550994450855796.296336998922925-.296336998922925.541834110858872-.538627991860267.545040229857477-.538169974859557.003206118999515.000916033999601.068244532982135.120916487967406.143817337962901.26702391093022.637101646833798,1.227485559678826,1.225195474680731,2.360619617384145,1.229775644679648,2.367947889382776.005038186998718.008244305996413.027481019992592-.012366458997349.272062097928938-.257405553933495l.266565893930419-.266107876930619-.011908441996638-.045343682988459c-.006412237999029-.024732917992878-.067786515982334-.261527706930792-.136031048964469-.525803515862208-.123206572968229-.477253713876053-.240000907937429-.929774509757408-.437864251886822-1.694662899557443-.056794107984388-.219390142943666-.131908895965353-.510688954867874-.167634221956177-.648094054831745-.035267308990115-.13694708296498-.065496430982421-.251909349934067-.066870481981823-.255573485934292-.001374051000312-.004122152999116.267481927930021-.276642267926945.74198753980636-.751147879802375.409467197892809-.409925214893519.751605896803994-.75572804980402.760308219802027-.76809450879955.036641359990426-.052213937988199.057252124985098-.09801563797555.070992634981849-.157557847960561.022900849993675-.098473654974441-.012366458997349-.216642040943043-.088397280977915-.297711049923237-.0586261759845-.062290311981997-.117710368968801-.095267535973107-.207939717945919-.114962266969087-.04580169998826-.009618356996725-.073282719979943-.010992407997037-.103053824972449-.003664135998406Z"/>
</svg>